<svg width="32" height="32" viewBox="0 0 32 32" fill="none" xmlns="http://www.w3.org/2000/svg">
<path fill-rule="evenodd" clip-rule="evenodd" d="M27.3366 4.6503C24.3287 1.65312 20.3284 0.00168461 16.0666 0C7.2851 0 0.138076 7.11286 0.134562 15.8557C0.133391 18.6504 0.867049 21.3784 2.26117 23.783L0.000976562 32L8.44676 29.795C10.7737 31.0582 13.3937 31.7239 16.0602 31.7251H16.0667C24.8473 31.7251 31.995 24.6113 31.9985 15.8684C32.0002 11.6315 30.3446 7.64748 27.3366 4.6503ZM16.0667 29.0469H16.0613C13.6852 29.046 11.3547 28.4107 9.3216 27.2099L8.83802 26.9242L3.82624 28.2327L5.164 23.3693L4.84911 22.8707C3.52358 20.7723 2.82346 18.3469 2.8245 15.8567C2.8274 8.59 8.76778 2.6781 16.072 2.6781C19.6089 2.67944 22.9337 4.05214 25.4338 6.54329C27.9339 9.03444 29.31 12.3458 29.3086 15.8673C29.3056 23.1346 23.3653 29.0469 16.0667 29.0469ZM23.3302 19.1762C22.9321 18.9779 20.975 18.0194 20.61 17.8872C20.2452 17.7549 19.9798 17.6888 19.7144 18.0855C19.449 18.4821 18.6861 19.3746 18.4538 19.639C18.2217 19.9034 17.9895 19.9365 17.5914 19.7382C17.1933 19.5398 15.9106 19.1215 14.3901 17.7716C13.2067 16.7211 12.4077 15.4236 12.1755 15.0269C11.9433 14.6303 12.1508 14.4158 12.3501 14.2183C12.5292 14.0408 12.7482 13.7556 12.9472 13.5242C13.1463 13.2928 13.2126 13.1276 13.3453 12.8632C13.478 12.5987 13.4116 12.3673 13.3121 12.169C13.2126 11.9707 12.4165 10.0205 12.0847 9.22726C11.7616 8.45467 11.4334 8.5592 11.1891 8.54711C10.9571 8.53562 10.6915 8.53316 10.4261 8.53316C10.1607 8.53316 9.72947 8.63233 9.36455 9.02895C8.99968 9.42561 7.97134 10.3842 7.97134 12.3343C7.97134 14.2844 9.39774 16.1684 9.5968 16.4329C9.79581 16.6973 12.4038 20.6993 16.3972 22.4155C17.3469 22.8237 18.0884 23.0674 18.6666 23.2501C19.6202 23.5516 20.488 23.509 21.174 23.4071C21.9388 23.2933 23.5292 22.4486 23.861 21.5231C24.1927 20.5976 24.1927 19.8043 24.0932 19.639C23.9937 19.4738 23.7283 19.3746 23.3302 19.1762Z" fill="#78866B"/>
</svg>
